<?xml version="1.0" standalone="no"?>
<!DOCTYPE svg PUBLIC "-//W3C//DTD SVG 20010904//EN"
 "http://www.w3.org/TR/2001/REC-SVG-20010904/DTD/svg10.dtd">
<svg version="1.0" xmlns="http://www.w3.org/2000/svg"
 width="260.000000pt" height="260.000000pt" viewBox="0 0 260.000000 260.000000"
 preserveAspectRatio="xMidYMid meet">
<metadata>
Created by potrace 1.11, written by Peter Selinger 2001-2013
</metadata>
<g transform="translate(0.000000,260.000000) scale(0.100000,-0.100000)"
fill="#000000" stroke="none">
<path d="M1432 2118 l3 -173 252 -3 253 -2 2 -843 3 -842 173 -3 172 -2 0 845
0 845 155 0 155 0 0 175 0 175 -585 0 -585 0 2 -172z"/>
<path d="M745 1935 c-216 -47 -409 -178 -530 -360 -93 -141 -132 -259 -142
-430 -22 -407 252 -771 652 -866 106 -25 268 -27 373 -4 293 62 536 282 634
575 31 91 32 102 32 255 0 153 -1 164 -32 255 -98 294 -341 514 -634 574 -93
19 -269 20 -353 1z m298 -350 c164 -43 298 -168 349 -328 29 -89 28 -211 -2
-301 -126 -378 -626 -462 -865 -144 -73 97 -90 152 -90 298 0 124 0 126 37
203 105 219 342 332 571 272z"/>
</g>
</svg>
