<svg xmlns="http://www.w3.org/2000/svg" viewBox="0 0 26.16 24.32"><defs><style>.a{fill:#ddd;}</style></defs><title>audio-book</title><path class="a" d="M25.71,3.6C25,3.06,22.94,4,22.17,4.17A4.93,4.93,0,0,0,22,1.82C21.33,0.76,20,1,19,1.24a17.46,17.46,0,0,0-3.45,1.52C15,3.09,13.45,4.4,12.88,4.35a5,5,0,0,1-1.15-.84Q11,3,10.28,2.6A14.33,14.33,0,0,0,6.75,1C5.73,0.72,4.5.71,4,1.8a6,6,0,0,0-.18,2.42C2.79,4.07.3,2.89,0,4.34A8.54,8.54,0,0,0,0,6V20.74c0,1.19-.42,2.95,1.25,2.73,2.8-.37,6.32-1.17,9,0.25,0.81,0.43,1.4,1.22,2.34,1.4a3.38,3.38,0,0,0,2.63-1A7.86,7.86,0,0,1,20,22.94a24.86,24.86,0,0,1,4.45.47c0.73,0.14,1.34.3,1.53-.64a27.33,27.33,0,0,0,0-5V5.35c0-.47.16-1.41-0.27-1.74h0Zm-20-1.37c1.68,0,3.53,1.26,4.89,2.11,0.52,0.32,1,.67,1.52,1s0.65,0.64,1.27.42c1.25-.44,6.59-4.7,7.39-3a6.2,6.2,0,0,1,0,1.95V8.62c0,2.52.25,5.17,0,7.68a2.21,2.21,0,0,1,0,.65c-0.33.32-2.46,0.2-3,.27-1.42.2-3.77,0.38-4.77,1.59a7,7,0,0,0-2.93-1.34,23.27,23.27,0,0,0-2.68-.39A8.15,8.15,0,0,1,5.23,17a3.73,3.73,0,0,1,0-1.24v-10C5.23,5.18,4.87,2.24,5.67,2.24Zm18.88,18.3A12.59,12.59,0,0,0,19,19.83a10.9,10.9,0,0,0-3.2.59c-0.89.33-1.92,1.63-2.85,1.63s-1.81-1.19-2.62-1.51A9.77,9.77,0,0,0,7.23,20a16,16,0,0,0-5.8.76V5.19c0.41,0.09,2.12.17,2.38,0.48a1.62,1.62,0,0,1,0,.41,10.32,10.32,0,0,1,0,2.4v6.84c0,0.81-.06,1.65,0,2.46s-0.06.59,0.73,0.59c1.16,0,8.55.32,8,2.16a0.55,0.55,0,0,1,.85,0c-0.33-1.1,3.16-1.66,3.82-1.78a22.31,22.31,0,0,1,2.89-.3,6,6,0,0,0,1.78,0c0.35-.17.13,0.09,0.29-0.19a2.47,2.47,0,0,0,0-.83V7.18a4.86,4.86,0,0,1,0-1.54c0.27-.35,1.94-0.47,2.38-0.58V20.54Z" transform="translate(0.05 -0.83)"/><path class="a" d="M7.89,12.94V9.87C7,10.23,7,12.65,7.89,12.94Z" transform="translate(0.05 -0.83)"/><path class="a" d="M12,15.4c0,0.38.5,0.06,0.55,0a1.14,1.14,0,0,0,0-.22,4.8,4.8,0,0,0,0-1.23V10c0-.52.31-2.25,0-2.67s-1.21.49-1.59,0.77c-0.7.52-1.45,1-2.16,1.5-0.55.35-.43,0.17-0.43,0.95a13,13,0,0,0,0,1.84c0.12,0.82-.16.31,0.62,0.73a7.16,7.16,0,0,1,.78.58Z" transform="translate(0.05 -0.83)"/><path class="a" d="M13.83,13.88c1,1,2.08-1.72,2.11-2.39s-0.42-2.27-1.22-2.65c-0.56-.26-1.19,0-1,0.71a4.16,4.16,0,0,0,.65.84,1.81,1.81,0,0,1,.12,1.76c-0.23.51-1.21,1.12-.61,1.73h0Z" transform="translate(0.05 -0.83)"/><path class="a" d="M17.3,11.3a3.77,3.77,0,0,1-1,2.45c-0.27.36-.83,0.78-0.34,1.26a0.68,0.68,0,0,0,.71.15c0.76-.21,1.46-1.66,1.71-2.34a4.26,4.26,0,0,0,0-2.9C18.13,9.34,17,7,16.05,7.69,15.4,8.14,16,8.63,16.3,9a3.88,3.88,0,0,1,1,2.27C17.34,12.24,17.25,9.81,17.3,11.3Z" transform="translate(0.05 -0.83)"/></svg>