<?xml version="1.0" encoding="utf-8"?>
<!-- Generator: Adobe Illustrator 19.2.1, SVG Export Plug-In . SVG Version: 6.00 Build 0)  -->
<svg version="1.1" id="Layer_1" xmlns="http://www.w3.org/2000/svg" xmlns:xlink="http://www.w3.org/1999/xlink" x="0px" y="0px"
	 viewBox="0 0 128 128" style="enable-background:new 0 0 128 128;" xml:space="preserve">
<polygon points="90.8,37.8 37.3,37.8 37.3,46.9 50.7,46.9 50.7,91.8 59.9,91.8 59.9,46.9 68.4,46.9 68.4,91.8 77.6,91.8 77.6,46.9 
	90.8,46.9 "/>
<path d="M104.6,46.8c-12.4,0-22.5,10.1-22.5,22.5c0,12.4,10.1,22.5,22.5,22.5s22.5-10.1,22.5-22.5C127.1,56.8,117,46.8,104.6,46.8z
	 M104.6,82.4c-7.3,0-13.2-5.9-13.2-13.2c0-7.3,5.9-13.2,13.2-13.2c7.3,0,13.2,5.9,13.2,13.2C117.8,76.5,111.9,82.4,104.6,82.4z"/>
<path d="M23.6,46.8c-12.4,0-22.5,10.1-22.5,22.5c0,12.4,10.1,22.5,22.5,22.5s22.5-10.1,22.5-22.5C46.1,56.8,36,46.8,23.6,46.8z
	 M23.6,82.4c-7.3,0-13.2-5.9-13.2-13.2c0-7.3,5.9-13.2,13.2-13.2c7.3,0,13.2,5.9,13.2,13.2C36.8,76.5,30.9,82.4,23.6,82.4z"/>
<g>
	<path d="M37.1,97.4h2c0.8,0,1.4,0.1,1.9,0.3s0.8,0.5,1,0.9c0.3,0.4,0.4,0.8,0.4,1.3c0,0.5-0.1,0.9-0.3,1.2c-0.2,0.4-0.5,0.7-1,0.9
		c0.5,0.2,0.9,0.4,1.2,0.6c0.3,0.2,0.5,0.5,0.7,0.9c0.2,0.3,0.2,0.7,0.2,1.1c0,0.8-0.3,1.5-0.9,2.1s-1.4,0.9-2.4,0.9h-2.8V97.4z
		 M38.1,98.4v3.3h0.6c0.7,0,1.2-0.1,1.6-0.2c0.3-0.1,0.6-0.3,0.8-0.6c0.2-0.3,0.3-0.6,0.3-0.9c0-0.5-0.2-0.8-0.5-1.1
		c-0.3-0.3-0.8-0.4-1.6-0.4H38.1z M38.1,102.7v3.9h1.3c0.7,0,1.3-0.1,1.6-0.2c0.3-0.1,0.6-0.4,0.8-0.7c0.2-0.3,0.3-0.6,0.3-1
		c0-0.5-0.1-0.9-0.4-1.2c-0.3-0.3-0.7-0.6-1.2-0.7c-0.3-0.1-1-0.1-1.8-0.1H38.1z"/>
	<path d="M52.1,97.1c1.5,0,2.8,0.5,3.9,1.5s1.6,2.3,1.6,3.8c0,1.5-0.5,2.8-1.6,3.8s-2.3,1.6-3.8,1.6c-1.5,0-2.8-0.5-3.8-1.6
		s-1.6-2.3-1.6-3.8c0-1,0.2-1.9,0.7-2.7c0.5-0.8,1.1-1.5,1.9-2C50.3,97.4,51.2,97.1,52.1,97.1z M52.2,98.1c-0.8,0-1.5,0.2-2.2,0.6
		c-0.7,0.4-1.2,0.9-1.6,1.6s-0.6,1.4-0.6,2.2c0,1.2,0.4,2.2,1.3,3.1c0.8,0.8,1.9,1.3,3,1.3c0.8,0,1.5-0.2,2.2-0.6s1.2-0.9,1.6-1.6
		s0.6-1.4,0.6-2.2c0-0.8-0.2-1.5-0.6-2.2s-0.9-1.2-1.6-1.6C53.7,98.3,53,98.1,52.2,98.1z"/>
	<path d="M66.5,97.1c1.5,0,2.8,0.5,3.9,1.5c1,1,1.6,2.3,1.6,3.8c0,1.5-0.5,2.8-1.6,3.8s-2.3,1.6-3.8,1.6c-1.5,0-2.8-0.5-3.8-1.6
		s-1.6-2.3-1.6-3.8c0-1,0.2-1.9,0.7-2.7c0.5-0.8,1.1-1.5,1.9-2C64.7,97.4,65.6,97.1,66.5,97.1z M66.6,98.1c-0.8,0-1.5,0.2-2.2,0.6
		c-0.7,0.4-1.2,0.9-1.6,1.6s-0.6,1.4-0.6,2.2c0,1.2,0.4,2.2,1.3,3.1c0.8,0.8,1.9,1.3,3,1.3c0.8,0,1.5-0.2,2.2-0.6
		c0.7-0.4,1.2-0.9,1.6-1.6c0.4-0.7,0.6-1.4,0.6-2.2c0-0.8-0.2-1.5-0.6-2.2c-0.4-0.7-0.9-1.2-1.6-1.6C68.1,98.3,67.3,98.1,66.6,98.1z
		"/>
	<path d="M76,97.4h1v3.8l4.1-3.8h1.4l-4.9,4.6l5.3,5.6h-1.4l-4.5-4.8v4.8h-1V97.4z"/>
	<path d="M85.4,105.7l0.9-0.5c0.6,1.1,1.3,1.7,2.1,1.7c0.3,0,0.7-0.1,1-0.2c0.3-0.2,0.5-0.4,0.7-0.6c0.2-0.3,0.2-0.6,0.2-0.9
		c0-0.3-0.1-0.7-0.3-1c-0.3-0.5-0.9-1-1.8-1.6c-0.9-0.6-1.4-1.1-1.6-1.4c-0.4-0.5-0.5-1-0.5-1.6c0-0.4,0.1-0.9,0.3-1.2
		c0.2-0.4,0.5-0.7,0.9-0.9c0.4-0.2,0.8-0.3,1.3-0.3c0.5,0,0.9,0.1,1.4,0.4c0.4,0.2,0.9,0.7,1.3,1.3l-0.8,0.6c-0.4-0.5-0.7-0.8-1-1
		c-0.3-0.2-0.6-0.2-0.9-0.2c-0.4,0-0.8,0.1-1,0.4s-0.4,0.6-0.4,0.9c0,0.2,0,0.4,0.1,0.6c0.1,0.2,0.3,0.4,0.5,0.7
		c0.1,0.1,0.6,0.5,1.3,1c0.9,0.7,1.5,1.2,1.8,1.7c0.3,0.5,0.5,1,0.5,1.5c0,0.7-0.3,1.4-0.8,1.9c-0.6,0.5-1.2,0.8-2.1,0.8
		c-0.6,0-1.2-0.2-1.7-0.5C86.2,107,85.8,106.5,85.4,105.7z"/>
</g>
<g>
</g>
<g>
</g>
<g>
</g>
<g>
</g>
<g>
</g>
<g>
</g>
</svg>
