<svg xmlns="http://www.w3.org/2000/svg" viewBox="0 0 128 128"><style type="text/css">
	.st0{fill:#DCDBDB;}
</style><polygon class="st0" points="90.8 37.8 37.3 37.8 37.3 46.9 50.7 46.9 50.7 91.8 59.9 91.8 59.9 46.9 68.4 46.9 68.4 91.8 77.6 91.8 77.6 46.9 90.8 46.9 "/><path class="st0" d="M104.6 46.8c-12.4 0-22.5 10.1-22.5 22.5 0 12.4 10.1 22.5 22.5 22.5s22.5-10.1 22.5-22.5C127.1 56.8 117 46.8 104.6 46.8zM104.6 82.4c-7.3 0-13.2-5.9-13.2-13.2 0-7.3 5.9-13.2 13.2-13.2 7.3 0 13.2 5.9 13.2 13.2C117.8 76.5 111.9 82.4 104.6 82.4z"/><path class="st0" d="M23.6 46.8c-12.4 0-22.5 10.1-22.5 22.5 0 12.4 10.1 22.5 22.5 22.5s22.5-10.1 22.5-22.5C46.1 56.8 36 46.8 23.6 46.8zM23.6 82.4c-7.3 0-13.2-5.9-13.2-13.2 0-7.3 5.9-13.2 13.2-13.2 7.3 0 13.2 5.9 13.2 13.2C36.8 76.5 30.9 82.4 23.6 82.4z"/></svg>
