<?xml version="1.0" encoding="utf-8"?>
<!-- Generator: Adobe Illustrator 19.2.1, SVG Export Plug-In . SVG Version: 6.00 Build 0)  -->
<svg version="1.0" xmlns="http://www.w3.org/2000/svg" xmlns:xlink="http://www.w3.org/1999/xlink" x="0px" y="0px"
	 viewBox="0 0 100 100" style="enable-background:new 0 0 100 100;" xml:space="preserve">
<style type="text/css">
	.st0{display:none;}
	.st1{display:inline;fill:#0E508D;}
	.st2{display:inline;}
	.st3{fill:none;stroke:#FFFFFF;stroke-width:3;stroke-miterlimit:10;}
</style>
<g id="bg" class="st0">
	<rect class="st1" width="100" height="100"/>
</g>
<g id="stop" class="st0">
	<g class="st2">
		<path class="st3" d="M92.2,85.7c0,3.3-2.7,6-6,6h-72c-3.3,0-6-2.7-6-6v-72c0-3.3,2.7-6,6-6h72c3.3,0,6,2.7,6,6V85.7z"/>
	</g>
</g>
<g id="play" class="st0">
	<g class="st2">
		<path class="st3" d="M85.4,45.9c3,1.7,3.1,4.6,0,6.4L20.1,90.6c-3,1.8-5.5,0.4-5.5-3.2L14,11.7c0-3.5,2.5-5,5.5-3.2L85.4,45.9z"/>
	</g>
</g>
<g id="pause" class="st0">
	<g class="st2">
		<path class="st3" d="M40.6,86.3c0,3.7-2.6,6.7-5.8,6.7s-5.8-3-5.8-6.7v-73c0-3.7,2.6-6.7,5.8-6.7s5.8,3,5.8,6.7V86.3z"/>
	</g>
	<g class="st2">
		<path class="st3" d="M69.6,86.3c0,3.7-2.6,6.7-5.8,6.7s-5.8-3-5.8-6.7v-73c0-3.7,2.6-6.7,5.8-6.7s5.8,3,5.8,6.7V86.3z"/>
	</g>
</g>
<g id="fastforward" class="st0">
	<g class="st2">
		<path class="st3" d="M47,45.3c2.3,2.7,2.3,7.1,0.1,9.8L18.2,90.7c-2.2,2.7-4.1,2.1-4.1-1.4l-1.2-78.4c-0.1-3.5,1.8-4.2,4-1.5
			L47,45.3z"/>
	</g>
	<g class="st2">
		<path class="st3" d="M85.9,45.3c2.3,2.7,2.3,7.1,0.1,9.8L57.1,90.7c-2.2,2.7-4.1,2.1-4.1-1.4l-1.2-78.4c-0.1-3.5,1.8-4.2,4-1.5
			L85.9,45.3z"/>
	</g>
</g>
<g id="rewind" class="st0">
	<g class="st2">
		<path class="st3" d="M53.8,45.3c-2.3,2.7-2.3,7.1-0.1,9.8l28.9,35.6c2.2,2.7,4.1,2.1,4.1-1.4l1.2-78.4c0.1-3.5-1.8-4.2-4-1.5
			L53.8,45.3z"/>
	</g>
	<g class="st2">
		<path class="st3" d="M14.9,45.3c-2.3,2.7-2.3,7.1-0.1,9.8l28.9,35.6c2.2,2.7,4.1,2.1,4.1-1.4L49,10.9c0.1-3.5-1.8-4.2-4-1.5
			L14.9,45.3z"/>
	</g>
</g>
<g id="previous" class="st0">
	<g class="st2">
		<path class="st3" d="M43.8,45.3c-2.3,2.7-2.3,7.1-0.1,9.8l28.9,35.6c2.2,2.7,4.1,2.1,4.1-1.4l1.2-78.4c0.1-3.5-1.8-4.2-4-1.5
			L43.8,45.3z"/>
	</g>
	<g class="st2">
		<path class="st3" d="M36.6,86.3c0,3.7-2.6,6.7-5.8,6.7s-5.8-3-5.8-6.7v-73c0-3.7,2.6-6.7,5.8-6.7s5.8,3,5.8,6.7V86.3z"/>
	</g>
</g>
<g id="next">
	<g>
		<path class="st3" d="M58.2,45.3c2.3,2.7,2.3,7.1,0.1,9.8L29.4,90.7c-2.2,2.7-4.1,2.1-4.1-1.4l-1.2-78.4c-0.1-3.5,1.8-4.2,4-1.5
			L58.2,45.3z"/>
	</g>
	<g>
		<path class="st3" d="M65.4,86.3c0,3.7,2.6,6.7,5.8,6.7s5.8-3,5.8-6.7v-73c0-3.7-2.6-6.7-5.8-6.7s-5.8,3-5.8,6.7V86.3z"/>
	</g>
	<g>
	</g>
	<g>
	</g>
	<g>
	</g>
	<g>
	</g>
	<g>
	</g>
	<g>
	</g>
</g>
</svg>
